<svg id="a510856c-4130-4c5c-8ea6-f33aa9371c91" data-name="Layer 1" xmlns="http://www.w3.org/2000/svg" viewBox="0 0 337.19 78.71"><path d="M85.46,81.41v18.83H81.05V81.41H78.64V77.29h2.41V68.51h4.41v8.78h4.32v4.12Z" transform="translate(-33.32 -36.28)" fill="#b9992f"/><path d="M96.89,77.29V81H97a7.23,7.23,0,0,1,2.48-3.23,6.33,6.33,0,0,1,3.8-1.18,6.7,6.7,0,0,1,3.63,1.13l-2,4a4,4,0,0,0-2.7-.93,5.18,5.18,0,0,0-2.84.71,4,4,0,0,0-1.64,2,10.55,10.55,0,0,0-.69,2.55A20.42,20.42,0,0,0,96.89,89v11.28H92.47V77.29Z" transform="translate(-33.32 -36.28)" fill="#b9992f"/><path d="M110.42,64.61a3,3,0,0,1,4.32,0,3,3,0,0,1,.88,2.18,2.87,2.87,0,0,1-.88,2.11,3.09,3.09,0,0,1-4.32,0,2.87,2.87,0,0,1-.88-2.11A3,3,0,0,1,110.42,64.61Zm4.37,12.68v22.95h-4.42V77.29Z" transform="translate(-33.32 -36.28)" fill="#b9992f"/><path d="M139,100.24V96.66h-.1a10.48,10.48,0,0,1-3.41,3.19,8.67,8.67,0,0,1-4.39,1.17,9.82,9.82,0,0,1-8-3.6,13.48,13.48,0,0,1-3-8.8,12.69,12.69,0,0,1,3-8.46,9.7,9.7,0,0,1,7.79-3.56,9.18,9.18,0,0,1,8,4.51h.1V57.67h4.41v42.57Zm-7.21-3.14a6.73,6.73,0,0,0,5.47-2.4,9,9,0,0,0,2-5.94,8.78,8.78,0,0,0-2-5.86,6.77,6.77,0,0,0-5.44-2.38A6.46,6.46,0,0,0,126.49,83a8.87,8.87,0,0,0-2,5.81,9.14,9.14,0,0,0,2,5.89A6.44,6.44,0,0,0,131.76,97.1Z" transform="translate(-33.32 -36.28)" fill="#b9992f"/><path d="M169.28,89.5H151.77a8.2,8.2,0,0,0,2,5.34,6.19,6.19,0,0,0,5,2.26,6.66,6.66,0,0,0,3.95-1.1,11.39,11.39,0,0,0,2.92-3.36l3.73,2.11A12,12,0,0,1,158.63,101a10.45,10.45,0,0,1-8.21-3.43A12.51,12.51,0,0,1,147.35,89a13.39,13.39,0,0,1,2.9-8.93q2.9-3.44,8.29-3.43t8,3.41a13.58,13.58,0,0,1,2.75,8.8ZM152,86.16h12.85A6.89,6.89,0,0,0,162.8,82a6,6,0,0,0-4.26-1.55A6.23,6.23,0,0,0,154.2,82,6.79,6.79,0,0,0,152,86.16Z" transform="translate(-33.32 -36.28)" fill="#b9992f"/><path d="M195.72,94.35H182.87l-3,7.79h-7.6l14.42-38h5.59l14,38h-7.7Zm-2-5.89L189.1,75H189l-4.07,13.44Z" transform="translate(-33.32 -36.28)" fill="#fff"/><path d="M230.94,78.06v22.61q0,14.33-11.67,14.32A13.58,13.58,0,0,1,211,112.3,9.35,9.35,0,0,1,207.1,105h7.26a4.76,4.76,0,0,0,1.52,3.06,4.65,4.65,0,0,0,3.24,1.16,5.19,5.19,0,0,0,2.79-.67,3.52,3.52,0,0,0,1.52-2,10.58,10.58,0,0,0,.54-2.4c.07-.7.1-1.64.1-2.82V99.74H224a7.49,7.49,0,0,1-2.86,2.33,8.54,8.54,0,0,1-3.71.86,9.47,9.47,0,0,1-7.94-3.73,14.11,14.11,0,0,1-2.9-8.93,14.32,14.32,0,0,1,3-9.14,9.84,9.84,0,0,1,8.15-3.85,7.89,7.89,0,0,1,3.5.83A7.2,7.2,0,0,1,224,80.37h.1V78.06ZM215.12,94.79a5.1,5.1,0,0,0,8.19,0,7.46,7.46,0,0,0,1.6-4.66,7.54,7.54,0,0,0-1.6-4.69,5.07,5.07,0,0,0-8.19,0,7.53,7.53,0,0,0-1.59,4.69A7.45,7.45,0,0,0,215.12,94.79Z" transform="translate(-33.32 -36.28)" fill="#fff"/><path d="M257.23,91.21H241.38a8.68,8.68,0,0,0,1.16,4.56,3.91,3.91,0,0,0,3.6,1.91c2,0,3.53-1.1,4.61-3.29l6.33,1a10.59,10.59,0,0,1-4.17,5.55,12,12,0,0,1-6.77,2,11.36,11.36,0,0,1-8.75-3.51,12.8,12.8,0,0,1-3.26-9.1,14.28,14.28,0,0,1,3-9.39q3-3.65,8.66-3.65t8.53,3.65a14.75,14.75,0,0,1,2.9,9.44Zm-15.65-4.27h9.17a6.65,6.65,0,0,0-1.49-3.43,3.85,3.85,0,0,0-3.07-1.43,3.91,3.91,0,0,0-3.14,1.4A6.8,6.8,0,0,0,241.58,86.94Z" transform="translate(-33.32 -36.28)" fill="#fff"/><path d="M267.28,78.06v2.21h.1q2-3,6.28-3,8.32,0,8.33,10.15v14.71h-6.86V87.53a11.61,11.61,0,0,0-.2-1.65,4.45,4.45,0,0,0-.54-1.66,3.47,3.47,0,0,0-1.1-1,3.58,3.58,0,0,0-1.89-.47,3.75,3.75,0,0,0-2.33.69,3.51,3.51,0,0,0-1.25,2,15.65,15.65,0,0,0-.44,2.28,23.12,23.12,0,0,0-.1,2.46v11.91h-6.87V78.06Z" transform="translate(-33.32 -36.28)" fill="#fff"/><path d="M294.6,83.85v18.29h-6.87V83.85h-2.35V78.06h2.35V69.92h6.87v8.14h4.22v5.79Z" transform="translate(-33.32 -36.28)" fill="#fff"/><path d="M315.64,79.78l-2.94,4a5.32,5.32,0,0,0-3.63-1.67,2.28,2.28,0,0,0-1.57.62,1.88,1.88,0,0,0-.69,1.44,1.71,1.71,0,0,0,.25.91,2.14,2.14,0,0,0,.8.74c.38.21.73.39,1.06.54s.79.33,1.4.56,1.08.43,1.44.59A9.88,9.88,0,0,1,315.37,90a6.49,6.49,0,0,1,1.35,4.39A7.77,7.77,0,0,1,314,100.6a9.92,9.92,0,0,1-6.65,2.33,10.57,10.57,0,0,1-8.49-4L302,94.84q2.5,2.79,5.1,2.79a2.85,2.85,0,0,0,2-.71,2.42,2.42,0,0,0,.78-1.89,2.38,2.38,0,0,0-.22-1,2.25,2.25,0,0,0-.81-.86,8.72,8.72,0,0,0-1-.59c-.28-.13-.75-.33-1.4-.59L305,91.4a10.45,10.45,0,0,1-3.53-2.35,5.64,5.64,0,0,1-1.27-4,7.75,7.75,0,0,1,2.13-5.6,7.33,7.33,0,0,1,5.52-2.2A11.32,11.32,0,0,1,315.64,79.78Z" transform="translate(-33.32 -36.28)" fill="#fff"/><path d="M320.13,98.68a2.39,2.39,0,0,1,3.3,0,2.22,2.22,0,0,1,.68,1.63,2.29,2.29,0,0,1-.68,1.66,2.32,2.32,0,0,1-4-1.66A2.21,2.21,0,0,1,320.13,98.68Z" transform="translate(-33.32 -36.28)" fill="#fff"/><path d="M335.58,89.71v3.52a3.81,3.81,0,0,0-2.7-1.25,2.82,2.82,0,0,0-2.35,1.15,4.24,4.24,0,0,0-.89,2.66,3.84,3.84,0,0,0,.93,2.63A3.07,3.07,0,0,0,333,99.48a3.36,3.36,0,0,0,2.57-1.23v3.53a6.47,6.47,0,0,1-3.17.78,6,6,0,0,1-4.63-2,7.21,7.21,0,0,1,.05-9.7,6.31,6.31,0,0,1,4.77-2A5.57,5.57,0,0,1,335.58,89.71Z" transform="translate(-33.32 -36.28)" fill="#fff"/><path d="M338.84,90.82a7.11,7.11,0,0,1,9.72,0,7.38,7.38,0,0,1,0,9.83,7.16,7.16,0,0,1-9.74,0,7.38,7.38,0,0,1,0-9.83Zm7.06,2.41a2.63,2.63,0,0,0-2.2-1.09,2.6,2.6,0,0,0-2.19,1.09,4,4,0,0,0-.84,2.51,3.91,3.91,0,0,0,.85,2.48,2.71,2.71,0,0,0,4.36,0,3.91,3.91,0,0,0,.85-2.48A4.09,4.09,0,0,0,345.9,93.23Z" transform="translate(-33.32 -36.28)" fill="#fff"/><path d="M355.82,89.31v1.15h.06A3.59,3.59,0,0,1,359,88.9a4,4,0,0,1,3.69,2,4,4,0,0,1,1.59-1.48,4.61,4.61,0,0,1,2.14-.53q4.08,0,4.08,5.25v8h-3.66V95.4a6.07,6.07,0,0,0-.47-2.92,1.39,1.39,0,0,0-1.26-.66,1.48,1.48,0,0,0-1,.32,2.22,2.22,0,0,0-.59.69,3.26,3.26,0,0,0-.29,1c-.06.45-.09.79-.1,1s0,.56,0,1v6.29h-3.66V94.47a6.38,6.38,0,0,0-.09-.9,3.5,3.5,0,0,0-.26-.9,2,2,0,0,0-.54-.59,1.46,1.46,0,0,0-.86-.26,1.65,1.65,0,0,0-1.11.37,1.84,1.84,0,0,0-.59,1.07,9.13,9.13,0,0,0-.2,1.16c0,.31,0,.72,0,1.24v6.48h-3.65V89.31Z" transform="translate(-33.32 -36.28)" fill="#fff"/><path d="M33.32,109.77S62.39,105,66.87,94.59c2.39-5.59-.8-8.78-2.4-14.37s.8-9.59,8-15.18c5.35-4.16,21.56-12.78,24-13.58s-11.18,3.2-19.17,6.39c-5.65,2.26-16.37,7.48-20,12-3.19,4-2.32,9.71,0,13.58s2.4,9.59-6.39,16C40.68,106.81,33.32,109.77,33.32,109.77Z" transform="translate(-33.32 -36.28)" fill="#b9992f"/><path d="M51.69,77.82s-8.4-4.72-7.19-12c.8-4.79,2.4-6.39,8.79-6.39,3.19,0,8,0,10.38-2.4a18.07,18.07,0,0,0,4.79-11.18c0-5.65-.8-7.19-.8-7.19s-.79,8-3.19,10.38-4.74,2.4-10.38,2.4c-1,0-8-1.6-12,2.4-4.41,4.41-4.79,10.38-4,12.78C39.4,70.5,41.31,76.22,51.69,77.82Z" transform="translate(-33.32 -36.28)" fill="#b9992f"/><ellipse cx="9.58" cy="7.19" rx="6.39" ry="7.19" fill="#b9992f"/></svg>